<svg xmlns="http://www.w3.org/2000/svg" viewBox="0 0 50 50"><path fill="currentColor" d="M 24.921875 3 C 18.581252 3 14.303756 4.9302084 11.599609 8.0019531 C 8.9557509 11.005216 7.8672852 14.978385 7.3984375 19.066406 L 3.3457031 26.050781 A 1.0001 1.0001 0 0 0 3.3359375 26.066406 C 2.646307 27.307427 3.0876317 28.925449 4.3378906 29.621094 A 1.0001 1.0001 0 0 0 4.3769531 29.640625 L 7.4199219 31.162109 L 8.3984375 37.929688 A 1.0001 1.0001 0 0 0 8.4003906 37.943359 C 8.6154808 39.287826 9.3136276 40.53304 10.292969 41.470703 C 11.272309 42.408367 12.573122 43.05731 14.001953 43 L 17 43 L 17 46 L 17 47 L 17.832031 47 A 1.0001 1.0001 0 0 0 18.158203 47 L 19 47 L 19 45 L 19 42 A 1.0001 1.0001 0 0 0 18 41 L 13.962891 41 A 1.0001 1.0001 0 0 0 13.921875 41 C 13.15671 41.03069 12.347191 40.67018 11.675781 40.027344 C 11.004372 39.384507 10.51091 38.478439 10.375 37.628906 L 9.3242188 30.359375 A 1.0001 1.0001 0 0 0 8.78125 29.607422 L 5.3105469 27.873047 C 4.9828058 27.690692 4.897568 27.378042 5.0859375 27.039062 L 9.2011719 19.947266 A 1.0001 1.0001 0 0 0 9.3300781 19.552734 C 9.7571873 15.578233 10.80346 11.932771 13.101562 9.3222656 C 15.399668 6.7117604 18.976498 5 24.921875 5 C 27.109899 5 29.026334 5.297042 30.705078 5.8164062 A 1.0001 1.0001 0 1 0 31.294922 3.90625 C 29.411666 3.3236143 27.291851 3 24.921875 3 z M 35 3 L 35 6.1445312 C 33.284214 6.5944085 32 8.1496983 32 10 C 32 11.068941 32.431897 12.039713 33.123047 12.759766 L 29.261719 22 L 26 22 A 1.0001 1.0001 0 1 0 26 24 L 28.425781 24 L 26.078125 29.615234 A 1.0001 1.0001 0 1 0 27.921875 30.384766 L 30.591797 24 L 35 24 L 35 26 L 37 26 L 37 24 L 41.400391 24 L 44.078125 30.386719 A 1.0001 1.0001 0 1 0 45.921875 29.613281 L 43.568359 24 L 46 24 A 1.0001 1.0001 0 1 0 46 22 L 42.728516 22 L 38.863281 12.777344 C 39.563515 12.055776 40 11.076881 40 10 C 40 8.1496983 38.715786 6.5944086 37 6.1445312 L 37 3 L 35 3 z M 36 8 C 37.116414 8 38 8.8835859 38 10 C 38 11.116414 37.116414 12 36 12 C 34.883586 12 34 11.116414 34 10 C 34 8.8835859 34.883586 8 36 8 z M 34.851562 13.810547 C 35.217881 13.922174 35.5988 14 36 14 C 36.394073 14 36.76834 13.92425 37.128906 13.816406 L 40.560547 22 L 37 22 L 37 20 L 35 20 L 35 22 L 31.427734 22 L 34.851562 13.810547 z M 38.732422 30.988281 A 1.0001 1.0001 0 0 0 37.917969 31.445312 C 36.125967 34.134895 35 37.265162 35 40.59375 L 35 45 L 35 46 L 35 47 L 35.832031 47 A 1.0001 1.0001 0 0 0 36.158203 47 L 37 47 L 37 46 L 37 45 L 37 40.59375 C 37 37.716338 37.973986 34.971105 39.583984 32.554688 A 1.0001 1.0001 0 0 0 38.732422 30.988281 z"></path></svg>