<svg id="visual" viewBox="0 0 900 350" width="900" height="350" xmlns="http://www.w3.org/2000/svg" xmlns:xlink="http://www.w3.org/1999/xlink" version="1.1">
    <rect x="0" y="0" width="900" height="350" fill="#242429"></rect>
    <path d="M0 116L13.7 140C27.3 164 54.7 212 82 227.3C109.3 242.7 136.7 225.3 163.8 216.3C191 207.3 218 206.7 245.2 212.2C272.3 217.7 299.7 229.3 327 237C354.3 244.7 381.7 248.3 409 232.8C436.3 217.3 463.7 182.7 491 171C518.3 159.3 545.7 170.7 573 175.5C600.3 180.3 627.7 178.7 654.8 184.7C682 190.7 709 204.3 736.2 217C763.3 229.7 790.7 241.3 818 229.5C845.3 217.7 872.7 182.3 886.3 164.7L900 147L900 351L886.3 351C872.7 351 845.3 351 818 351C790.7 351 763.3 351 736.2 351C709 351 682 351 654.8 351C627.7 351 600.3 351 573 351C545.7 351 518.3 351 491 351C463.7 351 436.3 351 409 351C381.7 351 354.3 351 327 351C299.7 351 272.3 351 245.2 351C218 351 191 351 163.8 351C136.7 351 109.3 351 82 351C54.7 351 27.3 351 13.7 351L0 351Z" fill="#18181b" stroke-linecap="round" stroke-linejoin="miter"></path>
</svg>